<?xml version="1.0" encoding="utf-8"?>
<svg version="1.1" id="Layer_1"
xmlns="http://www.w3.org/2000/svg"
xmlns:xlink="http://www.w3.org/1999/xlink"
width="160px" height="140px"
xml:space="preserve">
<g id="PathID_67" transform="matrix(1, 0, 0, 1, 203, -344)" opacity="1">
</g>
<g id="PathID_68" transform="matrix(1, 0, 0, 1, 203, -344)" opacity="1">
</g>
<g id="PathID_69" transform="matrix(0.728304, 0, 0, 0.728304, -152.15, -283.05)" opacity="1">
<path style="fill:#00A779;fill-opacity:1" d="M422.85 470.05Q420.05 479.8 413.9 487.25Q407.75 494.75 399.15 499.55Q390.55 504.4 381.2 505.75L383.2 503.4Q385.2 501.1 387.95 497Q390.65 492.9 393.45 487.3Q396.3 481.7 397.9 475.1Q400.25 465.3 398.25 457.7Q396.25 450.1 390.9 445.1Q385.5 440.1 377.25 437.95Q368.95 435.8 358.85 436.9Q355.9 433.55 352.2 430.5Q348.5 427.5 343.85 425.2Q339.2 422.9 333.6 421.6Q327.95 420.25 321.25 420.35Q314.85 420.4 309.1 421.6Q303.4 422.8 298.7 424.95Q293.95 427.1 290.35 430.1Q286.75 433.15 284.6 436.9Q276.05 435.65 268.75 436.4Q261.45 437.15 255.8 439.75Q250.15 442.35 246.4 446.65Q242.65 451 241.3 456.9Q239.7 463.55 241.65 470.2Q243.6 476.9 249.2 482.6Q254.75 488.3 263.95 492.55Q273.15 496.8 286.05 498.55Q289.55 483.1 298.2 474.2Q306.9 465.3 317.45 461.25Q328 457.2 338.7 457.2Q349.4 457.2 357 459.6Q363.75 461.75 368.2 465.3Q372.65 468.85 375.2 472.9Q377.8 476.9 378.7 480.95Q379.65 485 379.35 488.1Q378.75 493.85 375.85 498.25Q373 502.7 369.1 505.95Q365.2 509.2 360.95 511.3Q356.65 513.4 353.3 514.5Q347.8 516.25 341.6 517.6Q335.45 518.95 329.6 519.9Q323.75 520.8 318.75 521.3Q313.8 521.75 310.7 521.8Q310.65 523.3 311.3 525.6Q311.95 527.95 312.9 530.25Q313.8 532.55 314.8 534.4Q315.8 536.3 316.5 536.85Q317.15 537.4 321.1 536.75Q325.1 536.1 329.6 535.05Q334.1 534.05 337.75 533.1L341.45 532.2L338.75 538.8Q336.1 545.4 332.75 553.25Q329.4 561.1 326.45 567.55Q323.5 574.05 322.9 573.75Q311.85 568 304.7 559.15Q297.55 550.3 293.4 541.95Q289.25 533.6 287.65 527.6L286.05 521.65L279.05 521.2Q272.1 520.8 262.25 518.25Q252.4 515.65 241.65 510.05Q230.95 504.45 223.4 494.05Q219 487.95 216.55 480.95Q214.05 473.9 213.35 466.85Q212.65 459.85 213.65 453.35Q214.65 446.9 217.25 441.95Q222.2 432.35 228.35 425.6Q234.55 418.85 241.9 415Q249.25 411.2 257.85 410.4Q266.45 409.55 276.35 411.9Q280.55 406.4 285.95 402.75Q291.4 399.05 297.35 396.8Q303.3 394.6 309.45 393.65Q315.6 392.7 321.25 392.7Q327.95 392.7 334.25 393.65Q340.5 394.6 346.2 396.85Q351.9 399.1 356.9 402.8Q361.95 406.45 366.15 411.9Q375.95 409.65 385.35 411.3Q394.75 412.9 402.55 417.8Q410.3 422.75 415.85 430.75Q421.4 438.7 423.5 449.25Q425.7 460.35 422.85 470.05M328.5 480.8Q324.75 482.6 321.35 485.55Q317.9 488.45 315.2 492.4Q312.5 496.35 311.35 501.05Q331.6 500.95 341.4 496.9Q351.2 492.9 353 488.4Q354.8 483.85 349.8 480.55Q344.85 477.25 335.55 478.55Q332.25 479 328.5 480.8" />
</g>
<g id="PathID_70" transform="matrix(0.728304, 0, 0, 0.728304, -152.15, -283.05)" opacity="1">
</g>
</svg>
