<?xml version="1.0" encoding="utf-8"?>
<svg version="1.1" id="Layer_1"
xmlns="http://www.w3.org/2000/svg"
xmlns:xlink="http://www.w3.org/1999/xlink"
width="211px" height="182px"
xml:space="preserve">
<g id="PathID_1" transform="matrix(1, 0, 0, 1, 203, -344)" opacity="1">
</g>
<g id="PathID_2" transform="matrix(1, 0, 0, 1, 203, -344)" opacity="1">
</g>
<g id="PathID_3" transform="matrix(0.728304, 0, 0, 0.728304, -127.15, -280.8)" opacity="1">
<path style="fill:#00A779;fill-opacity:1" d="M422.85 470.05Q420.05 479.8 413.9 487.25Q407.75 494.75 399.15 499.55Q390.55 504.4 381.2 505.75L383.2 503.4Q385.2 501.1 387.95 497Q390.65 492.9 393.45 487.3Q396.3 481.7 397.9 475.1Q400.25 465.3 398.25 457.7Q396.25 450.1 390.9 445.1Q385.5 440.1 377.25 437.95Q368.95 435.8 358.85 436.9Q355.9 433.55 352.2 430.5Q348.5 427.5 343.85 425.2Q339.2 422.9 333.6 421.6Q327.95 420.25 321.25 420.35Q314.85 420.4 309.1 421.6Q303.4 422.8 298.7 424.95Q293.95 427.1 290.35 430.1Q286.75 433.15 284.6 436.9Q276.05 435.65 268.75 436.4Q261.45 437.15 255.8 439.75Q250.15 442.35 246.4 446.65Q242.65 451 241.3 456.9Q239.7 463.55 241.65 470.2Q243.6 476.9 249.2 482.6Q254.75 488.3 263.95 492.55Q273.15 496.8 286.05 498.55Q289.55 483.1 298.2 474.2Q306.9 465.3 317.45 461.25Q328 457.2 338.7 457.2Q349.4 457.2 357 459.6Q363.75 461.75 368.2 465.3Q372.65 468.85 375.2 472.9Q377.8 476.9 378.7 480.95Q379.65 485 379.35 488.1Q378.75 493.85 375.85 498.25Q373 502.7 369.1 505.95Q365.2 509.2 360.95 511.3Q356.65 513.4 353.3 514.5Q347.8 516.25 341.6 517.6Q335.45 518.95 329.6 519.9Q323.75 520.8 318.75 521.3Q313.8 521.75 310.7 521.8Q310.65 523.3 311.3 525.6Q311.95 527.95 312.9 530.25Q313.8 532.55 314.8 534.4Q315.8 536.3 316.5 536.85Q317.15 537.4 321.1 536.75Q325.1 536.1 329.6 535.05Q334.1 534.05 337.75 533.1L341.45 532.2L338.75 538.8Q336.1 545.4 332.75 553.25Q329.4 561.1 326.45 567.55Q323.5 574.05 322.9 573.75Q311.85 568 304.7 559.15Q297.55 550.3 293.4 541.95Q289.25 533.6 287.65 527.6L286.05 521.65L279.05 521.2Q272.1 520.8 262.25 518.25Q252.4 515.65 241.65 510.05Q230.95 504.45 223.4 494.05Q219 487.95 216.55 480.95Q214.05 473.9 213.35 466.85Q212.65 459.85 213.65 453.35Q214.65 446.9 217.25 441.95Q222.2 432.35 228.35 425.6Q234.55 418.85 241.9 415Q249.25 411.2 257.85 410.4Q266.45 409.55 276.35 411.9Q280.55 406.4 285.95 402.75Q291.4 399.05 297.35 396.8Q303.3 394.6 309.45 393.65Q315.6 392.7 321.25 392.7Q327.95 392.7 334.25 393.65Q340.5 394.6 346.2 396.85Q351.9 399.1 356.9 402.8Q361.95 406.45 366.15 411.9Q375.95 409.65 385.35 411.3Q394.75 412.9 402.55 417.8Q410.3 422.75 415.85 430.75Q421.4 438.7 423.5 449.25Q425.7 460.35 422.85 470.05M328.5 480.8Q324.75 482.6 321.35 485.55Q317.9 488.45 315.2 492.4Q312.5 496.35 311.35 501.05Q331.6 500.95 341.4 496.9Q351.2 492.9 353 488.4Q354.8 483.85 349.8 480.55Q344.85 477.25 335.55 478.55Q332.25 479 328.5 480.8" />
</g>
<g id="PathID_4" transform="matrix(0.728304, 0, 0, 0.728304, -127.15, -280.8)" opacity="1">
</g>
<g id="PathID_5" transform="matrix(0.897946, 0, 0, 0.897946, 1.35, 170.4)" opacity="1">
<path style="fill:#333333;fill-opacity:1" d="M13.5 -35.45Q14.45 -33.8 15.65 -31.3L18.15 -25.9Q19.45 -23.05 20.7 -20L23.15 -14.3L25.55 -20Q26.8 -23.05 28.1 -25.9L30.65 -31.3Q31.85 -33.8 32.75 -35.45L40.05 -35.45Q40.55 -31.95 40.95 -27.55Q41.4 -23.2 41.75 -18.45L42.35 -8.95L42.85 0L35.05 0L34.65 -11.25Q34.4 -17.35 33.9 -23.55L31.85 -18.8L29.6 -13.55L27.5 -8.55L25.75 -4.5L20.15 -4.5L18.4 -8.55L16.3 -13.55L14.05 -18.8L12 -23.55Q11.5 -17.35 11.25 -11.25L10.85 0L3.05 0L3.55 -8.95L4.15 -18.45Q4.5 -23.2 4.95 -27.55Q5.35 -31.95 5.9 -35.45L13.5 -35.45" />
</g>
<g id="PathID_6" transform="matrix(0.897946, 0, 0, 0.897946, 1.35, 170.4)" opacity="1">
</g>
<g id="PathID_7" transform="matrix(0.897946, 0, 0, 0.897946, 41.1, 170.4)" opacity="1">
<path style="fill:#333333;fill-opacity:1" d="M27.5 -26.9Q25.2 -19.15 22.65 -12.35Q20.15 -5.5 17.2 0.85Q16.1 3.15 15.05 4.75Q13.95 6.4 12.7 7.45Q11.4 8.5 9.8 8.95Q8.2 9.45 6.05 9.45Q4.25 9.45 2.75 9.15Q1.2 8.8 0.25 8.4L1.55 2.3Q2.75 2.7 3.65 2.85Q4.6 3 5.6 3Q7.65 3 8.75 1.9Q9.85 0.8 10.65 -1.1Q8.05 -6.25 5.4 -12.6Q2.8 -19 0.5 -26.9L8.6 -26.9Q9.1 -24.9 9.8 -22.6L11.25 -17.9L12.8 -13.25L14.3 -9.15Q15 -11 15.7 -13.25L17.1 -17.9L18.45 -22.6L19.6 -26.9L27.5 -26.9" />
</g>
<g id="PathID_8" transform="matrix(0.897946, 0, 0, 0.897946, 41.1, 170.4)" opacity="1">
</g>
<g id="PathID_9" transform="matrix(0.897946, 0, 0, 0.897946, 64.75, 170.4)" opacity="1">
<path style="fill:#333333;fill-opacity:1" d="M13.75 -6.1Q15.45 -6.1 16.55 -6.35Q17.65 -6.65 18.3 -7.15Q19 -7.6 19.25 -8.3Q19.5 -8.95 19.5 -9.75Q19.5 -11.5 17.85 -12.65Q16.2 -13.8 12.2 -15.15Q10.5 -15.75 8.75 -16.55Q7 -17.35 5.6 -18.55Q4.25 -19.75 3.35 -21.45Q2.5 -23.2 2.5 -25.65Q2.5 -28.1 3.4 -30.05Q4.35 -32.05 6.05 -33.4Q7.7 -34.8 10.15 -35.55Q12.55 -36.3 15.55 -36.3Q19.15 -36.3 21.75 -35.5Q24.35 -34.75 26.05 -33.85L23.75 -27.55Q22.25 -28.3 20.45 -28.9Q18.6 -29.5 16.05 -29.5Q13.2 -29.5 11.95 -28.7Q10.7 -27.9 10.7 -26.25Q10.7 -25.3 11.15 -24.6Q11.6 -23.95 12.45 -23.4Q13.3 -22.85 14.4 -22.45L16.85 -21.55Q19.6 -20.5 21.65 -19.5Q23.7 -18.5 25.05 -17.2Q26.4 -15.85 27.05 -14.05Q27.75 -12.3 27.75 -9.7Q27.75 -4.75 24.25 -2Q20.75 0.7 13.75 0.7Q11.4 0.7 9.5 0.4Q7.6 0.15 6.15 -0.25Q4.7 -0.65 3.65 -1.1Q2.6 -1.55 1.9 -2L4.15 -8.35Q5.7 -7.45 8.05 -6.75Q10.4 -6.1 13.75 -6.1" />
</g>
<g id="PathID_10" transform="matrix(0.897946, 0, 0, 0.897946, 64.75, 170.4)" opacity="1">
</g>
<g id="PathID_11" transform="matrix(0.897946, 0, 0, 0.897946, 89.95, 170.4)" opacity="1">
<path style="fill:#333333;fill-opacity:1" d="M28.75 -13.5Q28.75 -10.35 27.85 -7.7Q26.9 -5.05 25.2 -3.2Q23.45 -1.3 21 -0.3Q18.55 0.7 15.55 0.7Q12.6 0.7 10.15 -0.3Q7.7 -1.3 6 -3.2Q4.25 -5.05 3.25 -7.7Q2.3 -10.35 2.3 -13.5Q2.3 -16.7 3.3 -19.3Q4.3 -21.9 6.05 -23.75Q7.8 -25.6 10.25 -26.6Q12.7 -27.65 15.55 -27.65Q18.45 -27.65 20.9 -26.6Q23.35 -25.6 25.1 -23.75Q26.8 -21.9 27.8 -19.3Q28.75 -16.7 28.75 -13.5M21 -13.5Q21 -17.05 19.55 -19.05Q18.15 -21.1 15.55 -21.1Q12.95 -21.1 11.5 -19.05Q10.05 -17.05 10.05 -13.5Q10.05 -9.95 11.5 -7.9Q12.95 -5.8 15.55 -5.8Q18.15 -5.8 19.55 -7.9Q21 -9.95 21 -13.5" />
</g>
<g id="PathID_12" transform="matrix(0.897946, 0, 0, 0.897946, 89.95, 170.4)" opacity="1">
</g>
<g id="PathID_13" transform="matrix(0.897946, 0, 0, 0.897946, 116.35, 170.4)" opacity="1">
<path style="fill:#333333;fill-opacity:1" d="M2.3 -13.45Q2.3 -16.35 3.25 -18.95Q4.2 -21.55 6 -23.45Q7.75 -25.4 10.35 -26.5Q12.9 -27.65 16.15 -27.65Q18.3 -27.65 20.1 -27.25Q21.9 -26.85 23.6 -26.15L22 -20.05Q20.95 -20.45 19.65 -20.75Q18.35 -21.1 16.8 -21.1Q13.4 -21.1 11.75 -19Q10.05 -16.9 10.05 -13.45Q10.05 -9.8 11.65 -7.8Q13.2 -5.8 17.1 -5.8Q18.45 -5.8 20.05 -6.1Q21.65 -6.35 23 -6.9L24.05 -0.65Q22.7 -0.1 20.7 0.3Q18.75 0.7 16.3 0.7Q12.65 0.7 9.95 -0.35Q7.3 -1.45 5.6 -3.35Q3.9 -5.25 3.1 -7.85Q2.3 -10.45 2.3 -13.45" />
</g>
<g id="PathID_14" transform="matrix(0.897946, 0, 0, 0.897946, 116.35, 170.4)" opacity="1">
</g>
<g id="PathID_15" transform="matrix(0.897946, 0, 0, 0.897946, 137.85, 170.4)" opacity="1">
<path style="fill:#333333;fill-opacity:1" d="M11.2 0L3.55 0L3.55 -26.9L11.2 -26.9L11.2 0M11.9 -34.7Q11.9 -32.6 10.55 -31.4Q9.2 -30.2 7.35 -30.2Q5.5 -30.2 4.15 -31.4Q2.8 -32.6 2.8 -34.7Q2.8 -36.8 4.15 -38Q5.5 -39.2 7.35 -39.2Q9.2 -39.2 10.55 -38Q11.9 -36.8 11.9 -34.7" />
</g>
<g id="PathID_16" transform="matrix(0.897946, 0, 0, 0.897946, 137.85, 170.4)" opacity="1">
</g>
<g id="PathID_17" transform="matrix(0.897946, 0, 0, 0.897946, 149.65, 170.4)" opacity="1">
<path style="fill:#333333;fill-opacity:1" d="M13.85 -5.3L16 -5.35L17.65 -5.5L17.65 -11.3L16.25 -11.5L14.6 -11.6Q13.5 -11.6 12.55 -11.5Q11.6 -11.35 10.9 -11Q10.2 -10.65 9.75 -10Q9.35 -9.4 9.35 -8.5Q9.35 -6.7 10.55 -6Q11.75 -5.3 13.85 -5.3M13.25 -27.65Q16.65 -27.65 18.9 -26.85Q21.15 -26.1 22.5 -24.65Q23.85 -23.25 24.4 -21.2Q24.95 -19.15 24.95 -16.65L24.95 -0.75Q23.35 -0.4 20.4 0.05Q17.5 0.55 13.35 0.55Q10.75 0.55 8.6 0.1Q6.5 -0.35 4.95 -1.4Q3.4 -2.45 2.6 -4.15Q1.8 -5.8 1.8 -8.3Q1.8 -10.65 2.75 -12.3Q3.65 -13.9 5.25 -14.9Q6.85 -15.85 8.9 -16.3Q10.95 -16.75 13.15 -16.75Q14.65 -16.75 15.8 -16.6Q16.95 -16.45 17.65 -16.25L17.65 -17Q17.65 -18.95 16.45 -20.1Q15.3 -21.3 12.4 -21.3Q10.45 -21.3 8.55 -21Q6.65 -20.7 5.25 -20.2L4.3 -26.35L5.95 -26.8L8.15 -27.2Q9.3 -27.4 10.6 -27.5Q11.9 -27.65 13.25 -27.65" />
</g>
<g id="PathID_18" transform="matrix(0.897946, 0, 0, 0.897946, 149.65, 170.4)" opacity="1">
</g>
<g id="PathID_19" transform="matrix(0.897946, 0, 0, 0.897946, 173.5, 170.4)" opacity="1">
<path style="fill:#333333;fill-opacity:1" d="M14.3 0.5Q11 0.45 8.9 -0.2Q6.85 -0.85 5.65 -2.05Q4.45 -3.25 4 -5Q3.55 -6.7 3.55 -8.85L3.55 -38.5L11.2 -39.7L11.2 -10.4Q11.2 -9.35 11.35 -8.55Q11.5 -7.7 11.95 -7.15Q12.4 -6.6 13.2 -6.25Q14 -5.9 15.4 -5.75L14.3 0.5" />
</g>
<g id="PathID_20" transform="matrix(0.897946, 0, 0, 0.897946, 173.5, 170.4)" opacity="1">
</g>
<g id="PathID_21" transform="matrix(0.897946, 0, 0, 0.897946, 186.6, 170.4)" opacity="1">
<path style="fill:#333333;fill-opacity:1" d="M11.3 -5.45Q13.4 -5.45 14.25 -5.9Q15.15 -6.3 15.15 -7.45Q15.15 -8.4 14 -9.1Q12.9 -9.75 10.6 -10.65Q8.8 -11.3 7.35 -12Q5.9 -12.75 4.85 -13.75Q3.85 -14.75 3.25 -16.1Q2.7 -17.5 2.7 -19.45Q2.7 -23.25 5.5 -25.45Q8.35 -27.65 13.25 -27.65Q15.7 -27.65 17.95 -27.2Q20.2 -26.75 21.55 -26.25L20.2 -20.3Q18.9 -20.75 17.3 -21.15Q15.75 -21.5 13.8 -21.5Q10.25 -21.5 10.25 -19.5Q10.25 -19.05 10.4 -18.7Q10.55 -18.3 11 -18Q11.45 -17.65 12.25 -17.25L14.25 -16.4Q16.8 -15.5 18.4 -14.6Q20.05 -13.7 21 -12.65Q21.95 -11.6 22.35 -10.35Q22.7 -9.05 22.7 -7.35Q22.7 -3.35 19.75 -1.3Q16.75 0.7 11.25 0.7Q7.65 0.7 5.3 0.1Q2.9 -0.5 2 -0.9L3.25 -7.1Q5.2 -6.35 7.25 -5.9Q9.3 -5.45 11.3 -5.45" />
</g>
<g id="PathID_22" transform="matrix(0.897946, 0, 0, 0.897946, 186.6, 170.4)" opacity="1">
</g>
</svg>
